<svg width="48" height="48" viewBox="0 0 48 48" fill="none" xmlns="http://www.w3.org/2000/svg">
<path fill-rule="evenodd" clip-rule="evenodd" d="M24 3.99999C21.6852 3.99976 19.4197 4.66895 17.4765 5.9269C15.5333 7.18486 13.9954 8.97791 13.048 11.09C12.9133 11.3928 12.7753 11.6942 12.634 11.994L12.594 11.996C12.466 12 12.292 12 12 12C9.87827 12 7.84344 12.8428 6.34315 14.3431C4.84285 15.8434 4 17.8783 4 20C4 22.1217 4.84285 24.1566 6.34315 25.6568C7.84344 27.1571 9.87827 28 12 28H12.344L16.344 24H12C10.9391 24 9.92172 23.5786 9.17157 22.8284C8.42143 22.0783 8 21.0609 8 20C8 18.9391 8.42143 17.9217 9.17157 17.1716C9.92172 16.4214 10.9391 16 12 16H12.128C12.544 16 13.028 16.002 13.428 15.92C13.9254 15.8328 14.4009 15.6494 14.828 15.38C15.31 15.068 15.642 14.68 15.894 14.326C16.0485 14.098 16.183 13.8571 16.296 13.606C16.402 13.386 16.532 13.096 16.688 12.75L16.696 12.73C17.3268 11.3203 18.3521 10.1233 19.6482 9.28339C20.9442 8.44348 22.4556 7.99657 24 7.99657C25.5444 7.99657 27.0558 8.44348 28.3518 9.28339C29.6479 10.1233 30.6732 11.3203 31.304 12.73L31.314 12.75C31.468 13.096 31.598 13.384 31.704 13.606C31.796 13.8 31.932 14.082 32.106 14.326C32.358 14.678 32.688 15.068 33.172 15.382C33.656 15.694 34.146 15.836 34.572 15.922C34.972 16.002 35.456 16.002 35.872 16.002L36 16C37.0609 16 38.0783 16.4214 38.8284 17.1716C39.5786 17.9217 40 18.9391 40 20C40 21.0609 39.5786 22.0783 38.8284 22.8284C38.0783 23.5786 37.0609 24 36 24H31.656L35.656 28H36C38.1217 28 40.1566 27.1571 41.6569 25.6568C43.1571 24.1566 44 22.1217 44 20C44 17.8783 43.1571 15.8434 41.6569 14.3431C40.1566 12.8428 38.1217 12 36 12C35.708 12 35.534 12 35.406 11.996H35.366C34.5349 9.64885 32.9945 7.61829 30.958 6.18563C28.9215 4.75297 26.4899 3.98915 24 3.99999Z" fill="url(#paint0_linear_17_39)"/>
<path d="M23.9999 24L22.5859 22.586L23.9999 21.172L25.4139 22.586L23.9999 24ZM25.9999 42C25.9999 42.5304 25.7892 43.0391 25.4142 43.4142C25.0391 43.7893 24.5304 44 23.9999 44C23.4695 44 22.9608 43.7893 22.5857 43.4142C22.2107 43.0391 21.9999 42.5304 21.9999 42H25.9999ZM14.5859 30.586L22.5859 22.586L25.4139 25.414L17.4139 33.414L14.5859 30.586ZM25.4139 22.586L33.4139 30.586L30.5859 33.414L22.5859 25.414L25.4139 22.586ZM25.9999 24V42H21.9999V24H25.9999Z" fill="url(#paint1_linear_17_39)"/>
<defs>
<linearGradient id="paint0_linear_17_39" x1="44" y1="28" x2="3.11113" y2="26.3757" gradientUnits="userSpaceOnUse">
<stop stop-color="#7000FF"/>
<stop offset="0.557776" stop-color="#F13DD4"/>
<stop offset="1" stop-color="#F83A3A"/>
</linearGradient>
<linearGradient id="paint1_linear_17_39" x1="33.4139" y1="44" x2="14.1446" y2="43.6212" gradientUnits="userSpaceOnUse">
<stop stop-color="#7000FF"/>
<stop offset="0.557776" stop-color="#F13DD4"/>
<stop offset="1" stop-color="#F83A3A"/>
</linearGradient>
</defs>
</svg>
