<svg width="78" height="78" viewBox="0 0 78 78" fill="none" xmlns="http://www.w3.org/2000/svg">
<path fill-rule="evenodd" clip-rule="evenodd" d="M39 6.5C35.2384 6.49963 31.557 7.58705 28.3993 9.63123C25.2416 11.6754 22.7425 14.5891 21.203 18.0213C20.984 18.5133 20.7598 19.003 20.5302 19.4903L20.4653 19.4935C20.2572 19.5 19.9745 19.5 19.5 19.5C16.0522 19.5 12.7456 20.8696 10.3076 23.3076C7.86964 25.7456 6.5 29.0522 6.5 32.5C6.5 35.9478 7.86964 39.2544 10.3076 41.6924C12.7456 44.1304 16.0522 45.5 19.5 45.5H20.059L26.559 39H19.5C17.7761 39 16.1228 38.3152 14.9038 37.0962C13.6848 35.8772 13 34.2239 13 32.5C13 30.7761 13.6848 29.1228 14.9038 27.9038C16.1228 26.6848 17.7761 26 19.5 26H19.708C20.384 26 21.1705 26.0033 21.8205 25.87C22.6287 25.7283 23.4015 25.4302 24.0955 24.9925C24.8787 24.4855 25.4182 23.855 25.8277 23.2798C26.0788 22.9093 26.2974 22.5178 26.481 22.1098C26.6532 21.7523 26.8645 21.281 27.118 20.7188L27.131 20.6863C28.1561 18.3955 29.8222 16.4504 31.9283 15.0855C34.0343 13.7207 36.4904 12.9944 39 12.9944C41.5096 12.9944 43.9657 13.7207 46.0717 15.0855C48.1778 16.4504 49.8439 18.3955 50.869 20.6863L50.8853 20.7188C51.1355 21.281 51.3468 21.749 51.519 22.1098C51.6685 22.425 51.8895 22.8833 52.1722 23.2798C52.5817 23.8518 53.118 24.4855 53.9045 24.9958C54.691 25.5028 55.4872 25.7335 56.1795 25.8733C56.8295 26.0033 57.616 26.0033 58.292 26.0033L58.5 26C60.2239 26 61.8772 26.6848 63.0962 27.9038C64.3152 29.1228 65 30.7761 65 32.5C65 34.2239 64.3152 35.8772 63.0962 37.0962C61.8772 38.3152 60.2239 39 58.5 39H51.441L57.941 45.5H58.5C61.9478 45.5 65.2544 44.1304 67.6924 41.6924C70.1304 39.2544 71.5 35.9478 71.5 32.5C71.5 29.0522 70.1304 25.7456 67.6924 23.3076C65.2544 20.8696 61.9478 19.5 58.5 19.5C58.0255 19.5 57.7427 19.5 57.5347 19.4935H57.4698C56.1193 15.6794 53.616 12.3797 50.3067 10.0517C46.9975 7.7236 43.0461 6.48239 39 6.5Z" fill="#B1B0B3"/>
<path d="M38.9999 39L36.7021 36.7023L38.9999 34.4045L41.2976 36.7023L38.9999 39ZM42.2499 68.25C42.2499 69.112 41.9075 69.9386 41.298 70.5481C40.6885 71.1576 39.8619 71.5 38.9999 71.5C38.1379 71.5 37.3113 71.1576 36.7018 70.5481C36.0923 69.9386 35.7499 69.112 35.7499 68.25H42.2499ZM23.7021 49.7023L36.7021 36.7023L41.2976 41.2978L28.2976 54.2978L23.7021 49.7023ZM41.2976 36.7023L54.2976 49.7023L49.7021 54.2978L36.7021 41.2978L41.2976 36.7023ZM42.2499 39V68.25H35.7499V39H42.2499Z" fill="#B1B0B3"/>
</svg>
